<?xml version="1.0" encoding="utf-8"?>
<!-- Generator: Adobe Illustrator 21.0.0, SVG Export Plug-In . SVG Version: 6.00 Build 0)  -->
<svg version="1.1" id="Layer_1" xmlns="http://www.w3.org/2000/svg" xmlns:xlink="http://www.w3.org/1999/xlink" x="0px" y="0px"
	 viewBox="0 0 841.9 595.3" style="enable-background:new 0 0 841.9 595.3;" xml:space="preserve">
<style type="text/css">
	.st0{fill:#2A97FF;stroke:#2A97FF;stroke-miterlimit:10;}
	.st1{fill:#6655FF;stroke:#6655FF;stroke-miterlimit:10;}
	.st2{fill:#FF832A;stroke:#FF832A;stroke-miterlimit:10;}
</style>
<path class="st0" d="M113,219c0,0,57-140,106-84s-63,213-69,211s81.4,0,81.4,0L159,384h-59c0,0,83-149,80-159s13-1-3-10s-22-8-33,3
	s-36,44-36,44L113,219z"/>
<polygon class="st1" points="560,115 519,184 581,184 512,358 575,327 620,196 637,127 "/>
<g>
	<g>
		<path d="M253,483.5c17.7,0,35.3,0,53,0c1.9,0,1.9-3,0-3c-17.7,0-35.3,0-53,0C251.1,480.5,251.1,483.5,253,483.5L253,483.5z"/>
	</g>
</g>
<g>
	<g>
		<path d="M287.2,436.1c-5.5,13.7-8.6,28.3-9.2,43.1c-0.4,11.9-1.3,27.2,9.8,34.5c5.6,3.7,12,6.3,18.2,8.9c3.4,1.4,6.8,2.8,10.2,4
			c2.3,0.9,5.7,2.7,8.3,2.3c4.7-0.7,7.8-8.2,9.5-11.9c2.7-5.8,4.2-12,4.7-18.4c0.2-1.9-2.8-1.9-3,0c-0.5,6.1-2,12-4.7,17.6
			c-1.1,2.2-2.3,4.4-3.7,6.5c-2.9,4.2-6.4,2.5-10.4,1c-5.9-2.1-11.7-4.6-17.3-7.2c-4.8-2.3-10.4-4.5-14.1-8.5
			c-4.2-4.6-4.2-12.1-4.5-18c-0.3-5.8-0.2-11.6,0.3-17.3c1.1-12.3,4.1-24.4,8.7-35.9C290.8,435.1,287.9,434.3,287.2,436.1
			L287.2,436.1z"/>
	</g>
</g>
<g>
	<g>
		<path d="M357.1,506.7c7.1-6.4,14.2-12.7,21.2-19.1c4-3.6,12.5-8.9,12.1-15.3c-0.4-5.6-8.2-7.1-12.6-7.7c-7.1-1-14.6,0.7-19.6,6.1
			c-4.9,5.2-5.2,12.5-5.5,19.2c-0.4,7-1.4,17.1,2.5,23.4c3.3,5.4,11.9,7.5,17.5,9.6c8.5,3.2,17.3,5.3,26.5,4.2c1.9-0.2,1.9-3.2,0-3
			c-12.6,1.6-26.3-3.1-37.3-9c-6.4-3.5-6.2-11-6.3-17.5c-0.1-6.1-0.3-13.3,1.5-19.1c2.1-6.8,8.4-10.8,15.4-11.3
			c3.5-0.2,7,0.4,10.3,1.5c3.2,1.1,5.1,3.8,3.2,7.3c-0.6,1.1-1.7,2.1-2.6,3c-9.1,8.8-18.9,17-28.3,25.5
			C353.6,505.9,355.7,508,357.1,506.7L357.1,506.7z"/>
	</g>
</g>
<g>
	<g>
		<path d="M414.2,461.3c7.7-0.9,15.6-1.9,23.2-0.3c8.3,1.8,13.9,6.4,18.3,13.5c7.2,11.8,17.2,30.3,3.5,41.5
			c-1.5,1.2,0.6,3.3,2.1,2.1c14.4-11.6,5.5-30.9-2.1-43.6c-4.1-6.9-8.8-12.4-16.6-15.2c-9.2-3.3-19-2.2-28.5-1
			C412.3,458.5,412.3,461.5,414.2,461.3L414.2,461.3z"/>
	</g>
</g>
<g>
	<g>
		<path d="M468.5,494.5c-13.1-3.3-26.5-5-40-4.6c-4.3,0.1-12.3-0.8-16,2c-3,2.3-2.1,6.5-0.9,9.6c3.6,9.2,10.5,15.9,20.6,16.9
			c13,1.3,26.3-5.8,38.2-10.2c1.8-0.7,1-3.6-0.8-2.9c-16.5,6.1-42.2,19.9-53.6-1.3c-0.9-1.7-2.4-3.8-2.4-5.7c-0.1-5.7,4.6-4.7,8.4-5
			c5-0.3,9.9-0.4,14.9-0.3c10.4,0.4,20.7,1.9,30.9,4.5C469.5,497.9,470.3,495,468.5,494.5L468.5,494.5z"/>
	</g>
</g>
<g>
	<g>
		<path d="M491.4,523.5c0.4-12.4,1.4-24.7,3-36.9c0.8-6.2,1.7-12.5,3-18.6c0.5-2.4,1-4.8,2.1-7c2.2-4.4,5.3-4.2,9.2-2
			c7.8,4.5,12.7,13.9,15.5,22.1c3.4,10,4.3,20.7,3.2,31.2c1,0,2,0,3,0c0.1-11,0.9-22.1,2.7-33c0.8-5.1,1.9-10.2,3.1-15.3
			c0.3-1.4,0.5-3.1,1.1-4.4c0.6-1.3,0.1-2.2,1.8-1.2c1.4,0.8,2.9,4.4,3.6,5.6c10.3,17.6,14.1,38.7,13.8,58.9c0,1.9,3,1.9,3,0
			c0.2-12.5-1.1-24.9-4.5-37c-2.9-10.4-7.2-21.8-14.2-30.2c-6.7-8-9.1,14-9.8,17.3c-2.5,12.9-3.7,26.1-3.8,39.2c0,2,2.8,1.9,3,0
			c1.3-12.3-0.2-24.9-5-36.3c-3.4-8.2-9.5-18-18.4-21.2c-11.7-4.2-13,14.5-14.2,21.6c-2.5,15.6-4,31.4-4.5,47.2
			C488.3,525.5,491.3,525.5,491.4,523.5L491.4,523.5z"/>
	</g>
</g>
<polygon class="st2" points="391.5,323.4 331.2,347.7 326.1,282.9 381.4,193.6 441.7,169.2 446.8,234.1 "/>
</svg>
