<?xml version="1.0" encoding="utf-8"?>
<!-- Generator: Adobe Illustrator 21.0.0, SVG Export Plug-In . SVG Version: 6.00 Build 0)  -->
<svg version="1.1" id="Layer_1" xmlns="http://www.w3.org/2000/svg" xmlns:xlink="http://www.w3.org/1999/xlink" x="0px" y="0px"
	 viewBox="0 0 566.9 566.9" style="enable-background:new 0 0 566.9 566.9;" xml:space="preserve">
<style type="text/css">
	.st0{fill:#FAA05A;}
	.st1{fill:#32D296;}
	.st2{stroke:#000000;stroke-miterlimit:10;}
	.st3{fill:#1E87F0;}
	.st4{fill:#FFFFFF;}
</style>
<path class="st0" d="M319,84.8c0,0-147.7,5.2-160.7,165.8h15.5c0,0,1.3-136,145.1-149V84.8z"/>
<path class="st1" d="M328.5,130.3c0,0-107.1,3.8-116.5,120.3h11.3c0,0,0.9-98.7,105.3-108.1V130.3z"/>
<path class="st2" d="M285.8,140.9c0,0-76.7,47.2-39.8,127.4l8.2-4.7c0,0-36.3-65,36.2-114.7L285.8,140.9z"/>
<rect x="272.8" y="160.5" transform="matrix(0.7494 -0.6621 0.6621 0.7494 -47.5556 227.9342)" class="st2" width="9.1" height="32.5"/>
<rect x="284.7" y="186" width="68.7" height="9.2"/>
<path d="M392.8,185.7c0,0-36.3-44.9-46.6,0c0,0-3.9,43.6,23.3,38.5c27.2-5.2,23.3-13,23.3-13l-23.3-2.6v-22.9H392.8z"/>
<path class="st3" d="M90.3,358v-63.5h37.6c0,0,18.1,6.5,10.4,20.7c-7.8,14.3-33.7,11-33.7,11l-1.3,31.7H90.3z"/>
<path class="st3" d="M188,339.6v-33.7c0,0,35-19.4,36.3-9.1c1.3,10.4-5.9,14.3-5.9,14.3h-18.7v37.6H188V339.6z"/>
<path class="st3" d="M233.1,298.8c-16.8,44.5,16.8,54.9,16.8,54.9l47.9-40.2L233.1,298.8z"/>
<path class="st4" d="M247.6,342.3c0,0-12.4-6-6.2-32l23.8,8.6L247.6,342.3z"/>
<polygon class="st3" points="321.8,345.2 321.8,301.7 331.7,301.7 331.7,313.2 341.2,313.2 351.6,301.7 365.3,313.2 365.3,345.2 
	356.8,345.2 354.2,323.4 343.6,323.4 343.6,345.2 331.7,345.2 331.7,324.9 312.7,324.9 312.7,345.2 "/>
<rect x="382.6" y="293.5" class="st3" width="10.4" height="8.6"/>
<rect x="382.6" y="313.5" class="st3" width="10.4" height="43.4"/>
<path class="st3" d="M440.1,290.4h-25.9v33.1c0,0,24.6,0.2,20.7,10.3c-3.9,10.1-20.7,11.4-20.7,11.4v9.1l25.9-9.1
	c0,0,23.2-17.3,8.4-22.9c-14.9-5.6-23.9-8.8-23.9-8.8l-5-11.7h14.3L440.1,290.4z"/>
<path class="st3" d="M473.4,323.6h24.5l13.4-21.7c0,0-3.7-12.7-13.4-15.7s-34.4,4.3-34.4,4.3s-13,53.6,0,60
	c13,6.5,34.4,3.9,34.4,3.9l-5.9-20.5h-18.6V323.6z"/>
</svg>
